<?xml version="1.0" standalone="no"?>
<!DOCTYPE svg PUBLIC "-//W3C//DTD SVG 20010904//EN"
 "http://www.w3.org/TR/2001/REC-SVG-20010904/DTD/svg10.dtd">
<svg version="1.0" xmlns="http://www.w3.org/2000/svg"
 width="148.000000pt" height="148.000000pt" viewBox="0 0 148.000000 148.000000"
 preserveAspectRatio="xMidYMid meet">
<metadata>
Created by potrace 1.14, written by Peter Selinger 2001-2017
</metadata>
<g transform="translate(0.000000,148.000000) scale(0.100000,-0.100000)"
fill="#000000" stroke="none">
<path d="M525 1149 c-93 -9 -146 -24 -225 -64 -87 -45 -112 -63 -178 -126 -76
-74 -117 -161 -109 -234 3 -29 12 -66 20 -82 22 -43 75 -91 114 -104 18 -6 33
-14 33 -19 0 -4 8 -7 18 -5 9 1 26 -5 36 -14 14 -11 17 -12 11 -2 -6 11 -4 13
11 6 10 -4 30 -7 43 -6 14 0 28 -5 33 -11 6 -10 8 -10 8 1 0 11 3 11 17 0 11
-10 14 -10 9 -1 -8 14 3 16 24 2 10 -6 20 -5 30 4 17 15 50 17 50 4 0 -4 4 -8
10 -8 5 0 7 6 4 13 -3 8 2 14 11 14 9 0 14 -5 12 -12 -3 -6 5 -11 18 -11 13 0
21 4 19 8 -3 5 -10 6 -15 3 -5 -4 -9 -2 -9 3 0 5 10 12 23 16 32 8 37 7 33 -6
-1 -7 -1 -9 2 -5 2 4 11 2 20 -5 12 -10 14 -10 8 0 -4 7 -1 15 8 18 9 3 13 11
9 18 -3 6 -3 8 2 4 4 -4 17 -2 28 4 16 8 23 7 35 -8 13 -18 14 -17 7 6 -4 14
-4 22 0 18 4 -4 23 -1 41 7 19 8 34 12 34 9 0 -3 17 5 37 17 23 14 34 18 29 8
-4 -8 1 -3 12 10 17 21 20 22 28 8 7 -12 10 -5 12 27 1 28 -4 48 -13 56 -25
21 -102 5 -250 -50 -169 -63 -251 -78 -339 -63 -73 12 -111 34 -132 75 -13 24
-13 32 -2 46 8 10 9 13 1 9 -6 -4 -14 -3 -17 2 -4 5 -2 13 4 16 8 5 8 11 0 20
-13 15 -4 39 10 30 5 -3 12 -1 15 5 4 6 1 9 -6 8 -6 -2 -13 2 -15 7 -4 12 32
62 40 54 3 -3 -3 -15 -14 -27 -12 -12 -16 -22 -11 -22 12 0 35 39 36 60 0 16
103 88 121 86 7 -1 18 -7 26 -14 8 -6 18 -9 21 -5 4 3 7 2 7 -4 0 -6 11 -8 25
-5 14 2 25 8 25 12 0 5 9 12 20 15 11 4 18 10 15 15 -3 5 0 20 6 33 9 20 17
24 37 21 14 -3 30 -7 36 -10 6 -3 3 1 -8 10 -18 15 -18 15 0 15 74 2 84 0 84
-16 0 -7 5 -13 10 -13 6 0 10 -9 10 -20 0 -24 13 -26 30 -5 7 8 17 12 22 9 6
-4 5 -10 -3 -15 -8 -5 -9 -9 -3 -9 15 0 39 29 30 37 -3 3 -6 0 -6 -7 0 -7 -3
-11 -6 -8 -7 7 14 50 30 60 7 5 7 8 -2 8 -7 0 -11 4 -8 8 3 5 -5 21 -17 36
-28 34 -76 44 -172 35z m85 -613 c0 -3 -4 -8 -10 -11 -5 -3 -10 -1 -10 4 0 6
5 11 10 11 6 0 10 -2 10 -4z"/>
<path d="M715 1040 c-3 -5 -1 -10 4 -10 6 0 11 5 11 10 0 6 -2 10 -4 10 -3 0
-8 -4 -11 -10z"/>
<path d="M945 1013 c-75 -16 -102 -21 -138 -28 -16 -3 -46 -12 -67 -19 -29
-10 -42 -10 -50 -2 -8 8 -11 7 -8 -4 2 -9 -6 -16 -19 -18 -13 -2 -23 -8 -23
-14 0 -6 -3 -9 -6 -5 -8 8 -51 -14 -81 -41 -26 -22 -29 -44 -10 -60 16 -14 87
-22 87 -11 0 5 5 9 11 9 5 0 7 -6 3 -12 -4 -7 2 -5 13 5 18 16 22 16 33 2 7
-8 20 -15 29 -14 10 0 8 3 -7 10 -30 11 -18 33 14 25 18 -5 24 -2 24 11 1 17
1 17 14 0 12 -16 14 -16 20 -2 4 11 2 14 -7 9 -8 -5 -9 -4 -2 4 6 7 32 14 58
16 26 2 51 7 55 11 4 5 -1 5 -10 2 -10 -4 -18 -3 -18 2 0 11 59 23 73 14 5 -3
7 -1 4 4 -4 6 0 14 9 17 24 9 31 7 14 -4 -8 -5 -10 -10 -4 -10 6 0 16 6 22 13
14 16 184 15 190 -1 1 -5 11 -8 21 -5 9 2 23 -3 30 -11 8 -9 19 -16 26 -16 6
0 18 -12 25 -27 16 -33 29 -143 17 -143 -4 0 -6 -4 -2 -9 8 -14 -83 -103 -137
-135 l-47 -27 -20 20 c-12 12 -31 21 -44 21 -29 0 -72 -44 -72 -73 0 -17 -10
-23 -50 -34 -27 -7 -58 -13 -68 -13 -24 0 -50 27 -41 41 4 7 3 9 -3 6 -6 -4
-13 2 -16 14 -5 17 -8 18 -25 8 -11 -7 -27 -25 -36 -40 -22 -37 -10 -89 25
-106 13 -7 23 -19 21 -25 -3 -10 -1 -11 9 0 7 6 22 12 34 12 15 0 17 -2 6 -9
-8 -5 -9 -11 -3 -15 5 -3 13 1 16 10 6 15 9 15 29 -2 16 -14 18 -15 9 -2 -12
15 -8 17 46 15 36 -1 58 2 56 8 -2 6 7 11 21 11 16 1 23 -2 19 -10 -3 -6 1 -3
9 6 8 10 28 21 46 24 17 4 31 11 31 16 0 5 5 6 10 3 6 -3 10 -1 10 4 0 14 32
14 48 1 9 -7 9 -7 2 2 -14 17 -12 28 6 28 9 0 12 -5 8 -12 -5 -9 -2 -9 9 1 18
15 23 26 7 16 -6 -3 -7 1 -4 9 3 9 9 14 13 12 4 -3 30 17 58 43 35 32 55 45
62 38 7 -7 8 -3 5 10 -4 13 0 22 11 27 9 3 13 10 10 16 -3 5 -2 10 3 10 6 0
13 11 16 25 3 13 16 34 29 46 12 12 16 19 10 15 -7 -4 -13 -2 -13 3 0 6 4 11
8 11 12 0 9 43 -3 52 -6 5 -5 8 3 8 9 0 10 5 4 18 -5 9 -8 25 -7 35 2 9 -1 17
-6 17 -5 0 -9 6 -9 14 0 36 -116 112 -200 131 -57 13 -181 12 -245 -2z"/>
<path d="M430 940 c0 -5 5 -10 11 -10 5 0 7 5 4 10 -3 6 -8 10 -11 10 -2 0 -4
-4 -4 -10z"/>
<path d="M257 926 c-17 -13 -17 -14 0 -20 10 -4 14 -4 10 0 -4 4 -2 13 4 21
14 17 9 16 -14 -1z"/>
<path d="M995 911 c-3 -5 -2 -12 3 -15 5 -3 9 1 9 9 0 17 -3 19 -12 6z"/>
<path d="M217 903 c-10 -9 -9 -33 1 -33 4 0 8 9 9 20 2 21 0 24 -10 13z"/>
<path d="M1412 680 c0 -14 2 -19 5 -12 2 6 2 18 0 25 -3 6 -5 1 -5 -13z"/>
<path d="M901 656 c-9 -11 -9 -16 1 -22 7 -4 10 -4 6 1 -4 4 -3 14 3 22 6 7 9
13 6 13 -2 0 -10 -6 -16 -14z"/>
<path d="M856 603 c-6 -14 -5 -15 5 -6 7 7 10 15 7 18 -3 3 -9 -2 -12 -12z"/>
<path d="M806 591 c-4 -5 -2 -12 3 -15 5 -4 12 -2 15 3 4 5 2 12 -3 15 -5 4
-12 2 -15 -3z"/>
<path d="M1350 590 c0 -5 5 -10 11 -10 5 0 7 5 4 10 -3 6 -8 10 -11 10 -2 0
-4 -4 -4 -10z"/>
<path d="M746 565 c-11 -8 -15 -15 -9 -15 6 0 16 7 23 15 16 19 11 19 -14 0z"/>
<path d="M650 540 c-12 -7 -10 -9 7 -7 12 0 19 5 17 9 -6 10 -6 10 -24 -2z"/>
<path d="M1294 535 c-4 -8 -10 -12 -15 -9 -5 3 -9 0 -9 -5 0 -16 20 -13 26 4
4 8 11 12 17 8 6 -3 7 -1 3 5 -10 16 -15 15 -22 -3z"/>
<path d="M1234 488 l-19 -23 23 19 c21 18 27 26 19 26 -2 0 -12 -10 -23 -22z"/>
<path d="M1066 398 c3 -5 10 -6 15 -3 13 9 11 12 -6 12 -8 0 -12 -4 -9 -9z"/>
<path d="M900 359 c0 -5 5 -7 10 -4 6 3 10 8 10 11 0 2 -4 4 -10 4 -5 0 -10
-5 -10 -11z"/>
</g>
</svg>
